<svg xmlns="http://www.w3.org/2000/svg" xmlns:xlink="http://www.w3.org/1999/xlink" width="50" viewBox="0 0 375 374.999991" height="50" preserveAspectRatio="xMidYMid meet"><defs><clipPath id="ba7cb216a3"><path d="M 0 125.113281 L 375 125.113281 L 375 235 L 0 235 Z M 0 125.113281 " clip-rule="nonzero"></path></clipPath><clipPath id="5ca19ae757"><path d="M 23 207 L 66 207 L 66 249.613281 L 23 249.613281 Z M 23 207 " clip-rule="nonzero"></path></clipPath><clipPath id="b84c142be5"><path d="M 304 207 L 347 207 L 347 249.613281 L 304 249.613281 Z M 304 207 " clip-rule="nonzero"></path></clipPath><clipPath id="0847209684"><path d="M 246 207 L 289 207 L 289 249.613281 L 246 249.613281 Z M 246 207 " clip-rule="nonzero"></path></clipPath></defs><g clip-path="url(#ba7cb216a3)"><path fill="#ffffff" d="M 25.917969 126.089844 C 22.683594 126.089844 21.253906 128.050781 20.117188 130.867188 L 0.675781 180.179688 L 0.0742188 183.929688 L 0.0742188 208.023438 L 0.160156 226.558594 C 0.0742188 231.476562 3.78125 234.058594 7.488281 234.191406 L 21.753906 234.191406 C 21.28125 232.296875 21.023438 230.351562 21.023438 228.332031 C 21.023438 228.242188 21.023438 228.15625 21.023438 228.070312 C 21.152344 215.183594 31.625 204.753906 44.597656 204.753906 C 57.617188 204.753906 68.132812 215.3125 68.175781 228.289062 L 68.175781 228.375 C 68.175781 230.402344 67.917969 232.339844 67.445312 234.195312 L 188.824219 234.195312 L 244.636719 234.25 C 244.148438 232.355469 243.851562 230.386719 243.851562 228.339844 C 243.859375 215.320312 254.433594 204.742188 267.429688 204.738281 C 280.414062 204.742188 290.988281 215.316406 291.003906 228.304688 C 290.996094 230.382812 290.699219 232.386719 290.191406 234.308594 L 302.535156 234.324219 C 302.058594 232.433594 301.796875 230.40625 301.796875 228.335938 L 301.796875 228.292969 C 301.796875 215.269531 312.316406 204.757812 325.335938 204.757812 C 338.351562 204.757812 348.914062 215.269531 348.914062 228.292969 L 348.914062 228.378906 C 348.914062 230.488281 348.613281 232.5625 348.09375 234.5 L 374.429688 234.5 L 374.90625 142.859375 C 374.992188 134.195312 364.214844 125.664062 355.550781 125.921875 M 56.472656 171.347656 C 56.472656 174.277344 53.925781 176.605469 50.820312 176.605469 L 20.421875 176.605469 C 17.320312 176.605469 12.984375 175.164062 15.136719 170.421875 L 23.386719 149.796875 C 24.59375 146.5625 25.941406 144.539062 29.042969 144.539062 L 50.820312 144.539062 C 53.921875 144.539062 56.472656 146.863281 56.472656 149.796875 Z M 123.199219 171.847656 C 123.199219 174.914062 120.667969 177.347656 117.589844 177.347656 L 87.425781 177.347656 C 84.347656 177.347656 81.816406 174.914062 81.816406 171.847656 L 81.816406 149.296875 C 81.816406 146.226562 84.34375 143.792969 87.425781 143.792969 L 117.589844 143.792969 C 120.667969 143.792969 123.199219 146.226562 123.199219 149.296875 Z M 169.375 171.847656 C 169.375 174.914062 166.847656 177.347656 163.761719 177.347656 L 133.597656 177.347656 C 130.523438 177.347656 127.992188 174.914062 127.992188 171.847656 L 127.992188 149.296875 C 127.992188 146.226562 130.523438 143.792969 133.597656 143.792969 L 163.761719 143.792969 C 166.84375 143.792969 169.375 146.226562 169.375 149.296875 Z M 215.554688 171.847656 C 215.554688 174.914062 213.027344 177.347656 209.941406 177.347656 L 179.785156 177.347656 C 176.703125 177.347656 174.167969 174.914062 174.167969 171.847656 L 174.167969 149.296875 C 174.167969 146.226562 176.699219 143.792969 179.785156 143.792969 L 209.941406 143.792969 C 213.027344 143.792969 215.554688 146.226562 215.554688 149.296875 Z M 261.734375 171.847656 C 261.734375 174.914062 259.199219 177.347656 256.121094 177.347656 L 225.964844 177.347656 C 222.875 177.347656 220.347656 174.914062 220.347656 171.847656 L 220.347656 149.296875 C 220.347656 146.226562 222.875 143.792969 225.964844 143.792969 L 256.121094 143.792969 C 259.199219 143.792969 261.734375 146.226562 261.734375 149.296875 Z M 307.914062 171.847656 C 307.914062 174.914062 305.378906 177.347656 302.296875 177.347656 L 272.136719 177.347656 C 269.058594 177.347656 266.527344 174.914062 266.527344 171.847656 L 266.527344 149.296875 C 266.527344 146.226562 269.058594 143.792969 272.136719 143.792969 L 302.296875 143.792969 C 305.378906 143.792969 307.914062 146.226562 307.914062 149.296875 Z M 354.085938 171.847656 C 354.085938 174.914062 351.554688 177.347656 348.46875 177.347656 L 318.308594 177.347656 C 315.226562 177.347656 312.703125 174.914062 312.703125 171.847656 L 312.703125 149.296875 C 312.703125 146.226562 315.226562 143.792969 318.308594 143.792969 L 348.46875 143.792969 C 351.554688 143.792969 354.085938 146.226562 354.085938 149.296875 Z M 354.085938 171.847656 " fill-opacity="1" fill-rule="nonzero"></path></g><g clip-path="url(#5ca19ae757)"><path fill="#ffffff" d="M 44.597656 249.554688 C 44.589844 249.554688 44.570312 249.554688 44.558594 249.554688 C 33.042969 249.523438 23.726562 240.191406 23.722656 228.675781 C 23.722656 228.585938 23.722656 228.511719 23.722656 228.441406 C 23.835938 217.007812 33.136719 207.773438 44.597656 207.769531 C 56.128906 207.773438 65.46875 217.117188 65.476562 228.652344 C 65.476562 228.671875 65.476562 228.683594 65.476562 228.722656 C 65.449219 240.234375 56.117188 249.554688 44.597656 249.554688 Z M 44.574219 235.855469 C 44.582031 235.855469 44.585938 235.855469 44.601562 235.855469 C 48.550781 235.855469 51.765625 232.644531 51.777344 228.714844 C 51.777344 228.6875 51.777344 228.675781 51.777344 228.648438 C 51.773438 224.695312 48.558594 221.484375 44.601562 221.480469 C 40.648438 221.484375 37.433594 224.691406 37.433594 228.648438 L 37.433594 228.832031 C 37.507812 232.71875 40.679688 235.847656 44.574219 235.855469 Z M 44.574219 235.855469 " fill-opacity="1" fill-rule="nonzero"></path></g><g clip-path="url(#b84c142be5)"><path fill="#ffffff" d="M 325.359375 249.554688 C 325.339844 249.554688 325.328125 249.554688 325.316406 249.554688 C 313.792969 249.53125 304.484375 240.191406 304.476562 228.675781 C 304.476562 228.671875 304.476562 228.664062 304.476562 228.652344 C 304.484375 217.109375 313.824219 207.773438 325.363281 207.769531 C 336.890625 207.773438 346.226562 217.109375 346.242188 228.644531 L 346.242188 228.652344 C 346.242188 228.671875 346.242188 228.683594 346.242188 228.722656 C 346.203125 240.238281 336.871094 249.554688 325.359375 249.554688 Z M 325.332031 235.847656 C 325.339844 235.847656 325.351562 235.847656 325.363281 235.847656 C 329.304688 235.855469 332.53125 232.644531 332.53125 228.714844 C 332.53125 228.6875 332.53125 228.675781 332.53125 228.648438 C 332.53125 224.695312 329.320312 221.484375 325.367188 221.472656 C 321.410156 221.484375 318.199219 224.691406 318.191406 228.648438 L 318.191406 228.855469 C 318.28125 232.726562 321.445312 235.84375 325.332031 235.847656 Z M 325.332031 235.847656 " fill-opacity="1" fill-rule="nonzero"></path></g><g clip-path="url(#0847209684)"><path fill="#ffffff" d="M 267.441406 249.554688 C 267.421875 249.554688 267.410156 249.554688 267.398438 249.554688 C 255.875 249.53125 246.566406 240.191406 246.558594 228.675781 C 246.558594 228.671875 246.558594 228.664062 246.558594 228.652344 C 246.566406 217.109375 255.90625 207.773438 267.445312 207.769531 C 278.972656 207.773438 288.308594 217.109375 288.324219 228.644531 L 288.324219 228.652344 C 288.324219 228.671875 288.324219 228.683594 288.324219 228.722656 C 288.285156 240.238281 278.953125 249.554688 267.441406 249.554688 Z M 267.410156 235.847656 C 267.417969 235.847656 267.429688 235.847656 267.441406 235.847656 C 271.382812 235.855469 274.609375 232.644531 274.609375 228.714844 C 274.609375 228.6875 274.609375 228.675781 274.609375 228.648438 C 274.609375 224.695312 271.398438 221.484375 267.445312 221.472656 C 263.488281 221.484375 260.277344 224.691406 260.265625 228.648438 L 260.265625 228.855469 C 260.359375 232.726562 263.527344 235.84375 267.410156 235.847656 Z M 267.410156 235.847656 " fill-opacity="1" fill-rule="nonzero"></path></g></svg>