<svg xmlns="http://www.w3.org/2000/svg" xmlns:xlink="http://www.w3.org/1999/xlink" width="50" viewBox="0 0 375 374.999991" height="50" preserveAspectRatio="xMidYMid meet"><defs><clipPath id="907cd32a06"><path d="M 0 93.75 L 375 93.75 L 375 281.25 L 0 281.25 Z M 0 93.75 " clip-rule="nonzero"></path></clipPath></defs><g clip-path="url(#907cd32a06)"><path fill="#ffffff" d="M 374.8125 173.375 L 359.6875 116.9375 C 359.238281 115.289062 358.660156 113.683594 357.949219 112.128906 C 357.238281 110.574219 356.40625 109.085938 355.453125 107.664062 C 354.503906 106.246094 353.441406 104.914062 352.269531 103.664062 C 351.097656 102.417969 349.835938 101.277344 348.476562 100.234375 C 347.121094 99.195312 345.6875 98.273438 344.179688 97.464844 C 342.671875 96.660156 341.109375 95.980469 339.492188 95.429688 C 337.871094 94.878906 336.21875 94.460938 334.53125 94.179688 C 332.847656 93.898438 331.148438 93.753906 329.4375 93.75 L 116.9375 93.75 C 114.878906 93.75 112.828125 93.859375 110.78125 94.085938 C 108.734375 94.3125 106.707031 94.648438 104.695312 95.09375 C 102.6875 95.542969 100.710938 96.101562 98.761719 96.765625 C 96.8125 97.429688 94.90625 98.199219 93.042969 99.074219 C 91.179688 99.953125 89.371094 100.925781 87.613281 102 C 85.859375 103.074219 84.167969 104.242188 82.539062 105.5 C 80.910156 106.761719 79.359375 108.109375 77.878906 109.539062 C 76.398438 110.96875 75 112.476562 73.6875 114.0625 L 27.25 170 L 24.1875 171.5625 C 22.375 172.460938 20.632812 173.476562 18.960938 174.617188 C 17.289062 175.757812 15.707031 177.007812 14.207031 178.367188 C 12.710938 179.730469 11.316406 181.1875 10.023438 182.746094 C 8.730469 184.300781 7.554688 185.941406 6.488281 187.660156 C 5.425781 189.382812 4.488281 191.167969 3.671875 193.019531 C 2.859375 194.871094 2.175781 196.769531 1.628906 198.71875 C 1.078125 200.664062 0.667969 202.640625 0.394531 204.644531 C 0.125 206.652344 -0.0078125 208.664062 0 210.6875 L 0 256.25 C 0 256.660156 0.0390625 257.066406 0.121094 257.46875 C 0.199219 257.871094 0.320312 258.261719 0.476562 258.640625 C 0.632812 259.019531 0.824219 259.382812 1.054688 259.722656 C 1.28125 260.0625 1.539062 260.378906 1.832031 260.667969 C 2.121094 260.960938 2.4375 261.21875 2.777344 261.445312 C 3.117188 261.675781 3.480469 261.867188 3.859375 262.023438 C 4.238281 262.179688 4.628906 262.300781 5.03125 262.378906 C 5.433594 262.460938 5.839844 262.5 6.25 262.5 L 46.375 262.5 C 46.980469 263.882812 47.683594 265.214844 48.484375 266.496094 C 49.28125 267.78125 50.167969 268.996094 51.144531 270.148438 C 52.121094 271.304688 53.175781 272.378906 54.304688 273.378906 C 55.4375 274.378906 56.636719 275.292969 57.902344 276.121094 C 59.164062 276.945312 60.480469 277.675781 61.851562 278.3125 C 63.222656 278.949219 64.632812 279.480469 66.078125 279.914062 C 67.527344 280.34375 68.996094 280.667969 70.492188 280.886719 C 71.988281 281.105469 73.488281 281.214844 75 281.214844 C 76.511719 281.214844 78.011719 281.105469 79.507812 280.886719 C 81.003906 280.667969 82.472656 280.34375 83.921875 279.914062 C 85.367188 279.480469 86.777344 278.949219 88.148438 278.3125 C 89.519531 277.675781 90.835938 276.945312 92.097656 276.121094 C 93.363281 275.292969 94.5625 274.378906 95.695312 273.378906 C 96.824219 272.378906 97.878906 271.304688 98.855469 270.148438 C 99.832031 268.996094 100.71875 267.78125 101.515625 266.496094 C 102.316406 265.214844 103.019531 263.882812 103.625 262.5 L 265.125 262.5 C 265.730469 263.882812 266.433594 265.214844 267.234375 266.496094 C 268.03125 267.78125 268.917969 268.996094 269.894531 270.148438 C 270.871094 271.304688 271.925781 272.378906 273.054688 273.378906 C 274.1875 274.378906 275.386719 275.292969 276.652344 276.121094 C 277.914062 276.945312 279.230469 277.675781 280.601562 278.3125 C 281.972656 278.949219 283.382812 279.480469 284.828125 279.914062 C 286.277344 280.34375 287.746094 280.667969 289.242188 280.886719 C 290.738281 281.105469 292.238281 281.214844 293.75 281.214844 C 295.261719 281.214844 296.761719 281.105469 298.257812 280.886719 C 299.753906 280.667969 301.222656 280.34375 302.671875 279.914062 C 304.117188 279.480469 305.527344 278.949219 306.898438 278.3125 C 308.269531 277.675781 309.585938 276.945312 310.847656 276.121094 C 312.113281 275.292969 313.3125 274.378906 314.445312 273.378906 C 315.574219 272.378906 316.628906 271.304688 317.605469 270.148438 C 318.582031 268.996094 319.46875 267.78125 320.265625 266.496094 C 321.066406 265.214844 321.769531 263.882812 322.375 262.5 L 331.0625 262.5 C 334.4375 262.503906 337.792969 262.257812 341.132812 261.765625 C 344.472656 261.273438 347.757812 260.535156 350.984375 259.554688 C 354.214844 258.578125 357.355469 257.363281 360.40625 255.921875 C 363.457031 254.476562 366.382812 252.816406 369.1875 250.9375 L 372.1875 248.9375 C 373.0625 248.363281 373.746094 247.617188 374.246094 246.695312 C 374.742188 245.777344 374.996094 244.796875 375 243.75 L 375 175 C 375 174.449219 374.9375 173.910156 374.8125 173.375 Z M 18.75 231.25 L 12.5 231.25 L 12.5 218.75 L 18.75 218.75 C 19.160156 218.75 19.566406 218.789062 19.96875 218.871094 C 20.371094 218.949219 20.761719 219.070312 21.140625 219.226562 C 21.519531 219.382812 21.882812 219.574219 22.222656 219.804688 C 22.5625 220.03125 22.878906 220.289062 23.167969 220.582031 C 23.460938 220.871094 23.71875 221.1875 23.945312 221.527344 C 24.175781 221.867188 24.367188 222.230469 24.523438 222.609375 C 24.679688 222.988281 24.800781 223.378906 24.878906 223.78125 C 24.960938 224.183594 25 224.589844 25 225 C 25 225.410156 24.960938 225.816406 24.878906 226.21875 C 24.800781 226.621094 24.679688 227.011719 24.523438 227.390625 C 24.367188 227.769531 24.175781 228.132812 23.945312 228.472656 C 23.71875 228.8125 23.460938 229.128906 23.167969 229.417969 C 22.878906 229.710938 22.5625 229.96875 22.222656 230.195312 C 21.882812 230.425781 21.519531 230.617188 21.140625 230.773438 C 20.761719 230.929688 20.371094 231.050781 19.96875 231.128906 C 19.566406 231.210938 19.160156 231.25 18.75 231.25 Z M 75 268.75 C 74.386719 268.75 73.773438 268.71875 73.164062 268.660156 C 72.550781 268.597656 71.945312 268.507812 71.34375 268.390625 C 70.738281 268.269531 70.144531 268.121094 69.558594 267.941406 C 68.96875 267.765625 68.390625 267.558594 67.824219 267.324219 C 67.257812 267.085938 66.703125 266.824219 66.160156 266.535156 C 65.621094 266.246094 65.09375 265.929688 64.582031 265.589844 C 64.074219 265.25 63.578125 264.882812 63.105469 264.492188 C 62.628906 264.105469 62.175781 263.691406 61.742188 263.257812 C 61.308594 262.824219 60.894531 262.371094 60.507812 261.894531 C 60.117188 261.421875 59.75 260.925781 59.410156 260.417969 C 59.070312 259.90625 58.753906 259.378906 58.464844 258.839844 C 58.175781 258.296875 57.914062 257.742188 57.675781 257.175781 C 57.441406 256.609375 57.234375 256.03125 57.058594 255.441406 C 56.878906 254.855469 56.730469 254.261719 56.609375 253.65625 C 56.492188 253.054688 56.402344 252.449219 56.339844 251.835938 C 56.28125 251.226562 56.25 250.613281 56.25 250 C 56.25 249.386719 56.28125 248.773438 56.339844 248.164062 C 56.402344 247.550781 56.492188 246.945312 56.609375 246.34375 C 56.730469 245.738281 56.878906 245.144531 57.058594 244.558594 C 57.234375 243.96875 57.441406 243.390625 57.675781 242.824219 C 57.914062 242.257812 58.175781 241.703125 58.464844 241.160156 C 58.753906 240.621094 59.070312 240.09375 59.410156 239.582031 C 59.75 239.074219 60.117188 238.578125 60.507812 238.105469 C 60.894531 237.628906 61.308594 237.175781 61.742188 236.742188 C 62.175781 236.308594 62.628906 235.894531 63.105469 235.507812 C 63.578125 235.117188 64.074219 234.75 64.582031 234.410156 C 65.09375 234.070312 65.621094 233.753906 66.160156 233.464844 C 66.703125 233.175781 67.257812 232.914062 67.824219 232.675781 C 68.390625 232.441406 68.96875 232.234375 69.558594 232.058594 C 70.144531 231.878906 70.738281 231.730469 71.34375 231.609375 C 71.945312 231.492188 72.550781 231.402344 73.164062 231.339844 C 73.773438 231.28125 74.386719 231.25 75 231.25 C 75.613281 231.25 76.226562 231.28125 76.835938 231.339844 C 77.449219 231.402344 78.054688 231.492188 78.65625 231.609375 C 79.261719 231.730469 79.855469 231.878906 80.441406 232.058594 C 81.03125 232.234375 81.609375 232.441406 82.175781 232.675781 C 82.742188 232.914062 83.296875 233.175781 83.839844 233.464844 C 84.378906 233.753906 84.90625 234.070312 85.417969 234.410156 C 85.925781 234.75 86.421875 235.117188 86.894531 235.507812 C 87.371094 235.894531 87.824219 236.308594 88.257812 236.742188 C 88.691406 237.175781 89.105469 237.628906 89.492188 238.105469 C 89.882812 238.578125 90.25 239.074219 90.589844 239.582031 C 90.929688 240.09375 91.246094 240.621094 91.535156 241.160156 C 91.824219 241.703125 92.085938 242.257812 92.324219 242.824219 C 92.558594 243.390625 92.765625 243.96875 92.941406 244.558594 C 93.121094 245.144531 93.269531 245.738281 93.390625 246.34375 C 93.507812 246.945312 93.597656 247.550781 93.660156 248.164062 C 93.71875 248.773438 93.75 249.386719 93.75 250 C 93.75 250.613281 93.714844 251.226562 93.65625 251.835938 C 93.59375 252.445312 93.5 253.050781 93.378906 253.652344 C 93.257812 254.253906 93.109375 254.851562 92.929688 255.4375 C 92.75 256.023438 92.542969 256.601562 92.308594 257.167969 C 92.070312 257.734375 91.808594 258.285156 91.519531 258.828125 C 91.230469 259.367188 90.914062 259.894531 90.574219 260.402344 C 90.230469 260.914062 89.867188 261.40625 89.476562 261.878906 C 89.085938 262.355469 88.675781 262.808594 88.242188 263.242188 C 87.808594 263.675781 87.355469 264.085938 86.878906 264.476562 C 86.40625 264.867188 85.914062 265.230469 85.402344 265.574219 C 84.894531 265.914062 84.367188 266.230469 83.828125 266.519531 C 83.285156 266.808594 82.734375 267.070312 82.167969 267.308594 C 81.601562 267.542969 81.023438 267.75 80.4375 267.929688 C 79.851562 268.109375 79.253906 268.257812 78.652344 268.378906 C 78.050781 268.5 77.445312 268.59375 76.835938 268.65625 C 76.226562 268.714844 75.613281 268.75 75 268.75 Z M 93.75 200 L 81.25 200 C 80.839844 200 80.433594 199.960938 80.03125 199.878906 C 79.628906 199.800781 79.238281 199.679688 78.859375 199.523438 C 78.480469 199.367188 78.117188 199.175781 77.777344 198.945312 C 77.4375 198.71875 77.121094 198.460938 76.832031 198.167969 C 76.539062 197.878906 76.28125 197.5625 76.054688 197.222656 C 75.824219 196.882812 75.632812 196.519531 75.476562 196.140625 C 75.320312 195.761719 75.199219 195.371094 75.121094 194.96875 C 75.039062 194.566406 75 194.160156 75 193.75 C 75 193.339844 75.039062 192.933594 75.121094 192.53125 C 75.199219 192.128906 75.320312 191.738281 75.476562 191.359375 C 75.632812 190.980469 75.824219 190.617188 76.054688 190.277344 C 76.28125 189.9375 76.539062 189.621094 76.832031 189.332031 C 77.121094 189.039062 77.4375 188.78125 77.777344 188.554688 C 78.117188 188.324219 78.480469 188.132812 78.859375 187.976562 C 79.238281 187.820312 79.628906 187.699219 80.03125 187.621094 C 80.433594 187.539062 80.839844 187.5 81.25 187.5 L 93.75 187.5 C 94.160156 187.5 94.566406 187.539062 94.96875 187.621094 C 95.371094 187.699219 95.761719 187.820312 96.140625 187.976562 C 96.519531 188.132812 96.882812 188.324219 97.222656 188.554688 C 97.5625 188.78125 97.878906 189.039062 98.167969 189.332031 C 98.460938 189.621094 98.71875 189.9375 98.945312 190.277344 C 99.175781 190.617188 99.367188 190.980469 99.523438 191.359375 C 99.679688 191.738281 99.800781 192.128906 99.878906 192.53125 C 99.960938 192.933594 100 193.339844 100 193.75 C 100 194.160156 99.960938 194.566406 99.878906 194.96875 C 99.800781 195.371094 99.679688 195.761719 99.523438 196.140625 C 99.367188 196.519531 99.175781 196.882812 98.945312 197.222656 C 98.71875 197.5625 98.460938 197.878906 98.167969 198.167969 C 97.878906 198.460938 97.5625 198.71875 97.222656 198.945312 C 96.882812 199.175781 96.519531 199.367188 96.140625 199.523438 C 95.761719 199.679688 95.371094 199.800781 94.96875 199.878906 C 94.566406 199.960938 94.160156 200 93.75 200 Z M 101.375 168.75 L 44.5625 168.75 L 75.6875 131.25 L 110.75 131.25 Z M 212.5 131.25 L 262.5 131.25 L 262.5 168.75 L 212.5 168.75 Z M 148.625 131.25 L 200 131.25 L 200 168.75 L 139.25 168.75 Z M 293.75 268.75 C 293.136719 268.75 292.523438 268.71875 291.914062 268.660156 C 291.300781 268.597656 290.695312 268.507812 290.09375 268.390625 C 289.488281 268.269531 288.894531 268.121094 288.308594 267.941406 C 287.71875 267.765625 287.140625 267.558594 286.574219 267.324219 C 286.007812 267.085938 285.453125 266.824219 284.910156 266.535156 C 284.371094 266.246094 283.84375 265.929688 283.332031 265.589844 C 282.824219 265.25 282.328125 264.882812 281.855469 264.492188 C 281.378906 264.105469 280.925781 263.691406 280.492188 263.257812 C 280.058594 262.824219 279.644531 262.371094 279.257812 261.894531 C 278.867188 261.421875 278.5 260.925781 278.160156 260.417969 C 277.820312 259.90625 277.503906 259.378906 277.214844 258.839844 C 276.925781 258.296875 276.664062 257.742188 276.425781 257.175781 C 276.191406 256.609375 275.984375 256.03125 275.808594 255.441406 C 275.628906 254.855469 275.480469 254.261719 275.359375 253.65625 C 275.242188 253.054688 275.152344 252.449219 275.089844 251.835938 C 275.03125 251.226562 275 250.613281 275 250 C 275 249.386719 275.03125 248.773438 275.089844 248.164062 C 275.152344 247.550781 275.242188 246.945312 275.359375 246.34375 C 275.480469 245.738281 275.628906 245.144531 275.808594 244.558594 C 275.984375 243.96875 276.191406 243.390625 276.425781 242.824219 C 276.664062 242.257812 276.925781 241.703125 277.214844 241.160156 C 277.503906 240.621094 277.820312 240.09375 278.160156 239.582031 C 278.5 239.074219 278.867188 238.578125 279.257812 238.105469 C 279.644531 237.628906 280.058594 237.175781 280.492188 236.742188 C 280.925781 236.308594 281.378906 235.894531 281.855469 235.507812 C 282.328125 235.117188 282.824219 234.75 283.332031 234.410156 C 283.84375 234.070312 284.371094 233.753906 284.910156 233.464844 C 285.453125 233.175781 286.007812 232.914062 286.574219 232.675781 C 287.140625 232.441406 287.71875 232.234375 288.308594 232.058594 C 288.894531 231.878906 289.488281 231.730469 290.09375 231.609375 C 290.695312 231.492188 291.300781 231.402344 291.914062 231.339844 C 292.523438 231.28125 293.136719 231.25 293.75 231.25 C 294.363281 231.25 294.976562 231.28125 295.585938 231.339844 C 296.199219 231.402344 296.804688 231.492188 297.40625 231.609375 C 298.011719 231.730469 298.605469 231.878906 299.191406 232.058594 C 299.78125 232.234375 300.359375 232.441406 300.925781 232.675781 C 301.492188 232.914062 302.046875 233.175781 302.589844 233.464844 C 303.128906 233.753906 303.65625 234.070312 304.167969 234.410156 C 304.675781 234.75 305.171875 235.117188 305.644531 235.507812 C 306.121094 235.894531 306.574219 236.308594 307.007812 236.742188 C 307.441406 237.175781 307.855469 237.628906 308.242188 238.105469 C 308.632812 238.578125 309 239.074219 309.339844 239.582031 C 309.679688 240.09375 309.996094 240.621094 310.285156 241.160156 C 310.574219 241.703125 310.835938 242.257812 311.074219 242.824219 C 311.308594 243.390625 311.515625 243.96875 311.691406 244.558594 C 311.871094 245.144531 312.019531 245.738281 312.140625 246.34375 C 312.257812 246.945312 312.347656 247.550781 312.410156 248.164062 C 312.46875 248.773438 312.5 249.386719 312.5 250 C 312.5 250.613281 312.464844 251.226562 312.40625 251.835938 C 312.34375 252.445312 312.25 253.050781 312.128906 253.652344 C 312.007812 254.253906 311.859375 254.851562 311.679688 255.4375 C 311.5 256.023438 311.292969 256.601562 311.058594 257.167969 C 310.820312 257.734375 310.558594 258.285156 310.269531 258.828125 C 309.980469 259.367188 309.664062 259.894531 309.324219 260.402344 C 308.980469 260.914062 308.617188 261.40625 308.226562 261.878906 C 307.835938 262.355469 307.425781 262.808594 306.992188 263.242188 C 306.558594 263.675781 306.105469 264.085938 305.628906 264.476562 C 305.15625 264.867188 304.664062 265.230469 304.152344 265.574219 C 303.644531 265.914062 303.117188 266.230469 302.578125 266.519531 C 302.035156 266.808594 301.484375 267.070312 300.917969 267.308594 C 300.351562 267.542969 299.773438 267.75 299.1875 267.929688 C 298.601562 268.109375 298.003906 268.257812 297.402344 268.378906 C 296.800781 268.5 296.195312 268.59375 295.585938 268.65625 C 294.976562 268.714844 294.363281 268.75 293.75 268.75 Z M 275 168.75 L 275 131.25 L 326.375 131.25 L 335.75 168.75 Z M 362.5 218.75 L 356.25 218.75 C 355.839844 218.75 355.433594 218.710938 355.03125 218.628906 C 354.628906 218.550781 354.238281 218.429688 353.859375 218.273438 C 353.480469 218.117188 353.117188 217.925781 352.777344 217.695312 C 352.4375 217.46875 352.121094 217.210938 351.832031 216.917969 C 351.539062 216.628906 351.28125 216.3125 351.054688 215.972656 C 350.824219 215.632812 350.632812 215.269531 350.476562 214.890625 C 350.320312 214.511719 350.199219 214.121094 350.121094 213.71875 C 350.039062 213.316406 350 212.910156 350 212.5 C 350 212.089844 350.039062 211.683594 350.121094 211.28125 C 350.199219 210.878906 350.320312 210.488281 350.476562 210.109375 C 350.632812 209.730469 350.824219 209.367188 351.054688 209.027344 C 351.28125 208.6875 351.539062 208.371094 351.832031 208.082031 C 352.121094 207.789062 352.4375 207.53125 352.777344 207.304688 C 353.117188 207.074219 353.480469 206.882812 353.859375 206.726562 C 354.238281 206.570312 354.628906 206.449219 355.03125 206.371094 C 355.433594 206.289062 355.839844 206.25 356.25 206.25 L 362.5 206.25 Z M 362.5 218.75 " fill-opacity="1" fill-rule="nonzero"></path></g></svg>